<svg xmlns="http://www.w3.org/2000/svg" viewBox="0 0 512 512" width="512" height="512">
  <!-- Background circle -->
  <circle cx="256" cy="256" r="256" fill="#1a0f1f"/>
  
  <!-- Outer ring (green) -->
  <circle cx="256" cy="256" r="240" fill="#2d5016"/>
  
  <!-- Middle ring (red) -->
  <circle cx="256" cy="256" r="200" fill="#8b0000"/>
  
  <!-- Inner ring (green) -->
  <circle cx="256" cy="256" r="160" fill="#2d5016"/>
  
  <!-- Triple ring (red) -->
  <circle cx="256" cy="256" r="140" fill="#8b0000"/>
  <circle cx="256" cy="256" r="120" fill="#1a0f1f"/>
  
  <!-- Double ring (green) -->
  <circle cx="256" cy="256" r="100" fill="#2d5016"/>
  <circle cx="256" cy="256" r="80" fill="#1a0f1f"/>
  
  <!-- Inner section (red) -->
  <circle cx="256" cy="256" r="60" fill="#8b0000"/>
  
  <!-- Bullseye outer (green) -->
  <circle cx="256" cy="256" r="30" fill="#2d5016"/>
  
  <!-- Bullseye center (red) -->
  <circle cx="256" cy="256" r="15" fill="#ff0000"/>
  
  <!-- Radial lines for sections (20 sections) -->
  <g stroke="#1a0f1f" stroke-width="2" opacity="0.3">
    <line x1="256" y1="256" x2="256" y2="16" transform="rotate(0 256 256)"/>
    <line x1="256" y1="256" x2="256" y2="16" transform="rotate(18 256 256)"/>
    <line x1="256" y1="256" x2="256" y2="16" transform="rotate(36 256 256)"/>
    <line x1="256" y1="256" x2="256" y2="16" transform="rotate(54 256 256)"/>
    <line x1="256" y1="256" x2="256" y2="16" transform="rotate(72 256 256)"/>
    <line x1="256" y1="256" x2="256" y2="16" transform="rotate(90 256 256)"/>
    <line x1="256" y1="256" x2="256" y2="16" transform="rotate(108 256 256)"/>
    <line x1="256" y1="256" x2="256" y2="16" transform="rotate(126 256 256)"/>
    <line x1="256" y1="256" x2="256" y2="16" transform="rotate(144 256 256)"/>
    <line x1="256" y1="256" x2="256" y2="16" transform="rotate(162 256 256)"/>
    <line x1="256" y1="256" x2="256" y2="16" transform="rotate(180 256 256)"/>
    <line x1="256" y1="256" x2="256" y2="16" transform="rotate(198 256 256)"/>
    <line x1="256" y1="256" x2="256" y2="16" transform="rotate(216 256 256)"/>
    <line x1="256" y1="256" x2="256" y2="16" transform="rotate(234 256 256)"/>
    <line x1="256" y1="256" x2="256" y2="16" transform="rotate(252 256 256)"/>
    <line x1="256" y1="256" x2="256" y2="16" transform="rotate(270 256 256)"/>
    <line x1="256" y1="256" x2="256" y2="16" transform="rotate(288 256 256)"/>
    <line x1="256" y1="256" x2="256" y2="16" transform="rotate(306 256 256)"/>
    <line x1="256" y1="256" x2="256" y2="16" transform="rotate(324 256 256)"/>
    <line x1="256" y1="256" x2="256" y2="16" transform="rotate(342 256 256)"/>
  </g>
</svg>
